<?xml version="1.0" encoding="utf-8"?>
<!-- Generator: Adobe Illustrator 14.0.0, SVG Export Plug-In  -->
<!DOCTYPE svg PUBLIC "-//W3C//DTD SVG 1.1//EN" "http://www.w3.org/Graphics/SVG/1.1/DTD/svg11.dtd" [
	<!ENTITY ns_flows "http://ns.adobe.com/Flows/1.0/">
]>
<svg version="1.1"
	 xmlns="http://www.w3.org/2000/svg" xmlns:xlink="http://www.w3.org/1999/xlink" xmlns:a="http://ns.adobe.com/AdobeSVGViewerExtensions/3.0/"
	 x="0px" y="0px" width="256px" height="256px" viewBox="0.063 0.079 256 256" enable-background="new 0.063 0.079 256 256"
	 xml:space="preserve">
<defs>
</defs>
<rect x="107.575" y="170.072" transform="matrix(0.7071 -0.7071 0.7071 0.7071 -97.2392 146.3278)" fill="#001E30" width="40.878" height="40.94"/>
<rect x="45.059" y="107.621" transform="matrix(0.7071 0.7071 -0.7071 0.7071 109.7452 -8.8297)" fill="#001E30" width="40.945" height="40.878"/>
<rect x="170.067" y="107.573" transform="matrix(-0.7071 -0.7071 0.7071 -0.7071 234.7475 353.2706)" fill="#001E30" width="40.941" height="40.89"/>
<polygon fill="#001E30" points="99.122,65.516 128.074,94.469 156.988,65.555 128.036,36.602 99.131,65.507 "/>
<rect x="138.803" y="135.513" transform="matrix(-0.7071 -0.7071 0.7071 -0.7071 159.2639 384.5363)" fill="#E53138" width="40.941" height="47.539"/>
<path fill="#E53138" d="M237.042,145.608l-17.573-17.572l-28.913,28.915l0.002,0.002l11.173,11.172l6.397,6.397
	c9.285,9.286,9.254,24.327-0.018,33.598c-9.272,9.272-24.308,9.307-33.598,0.017l-6.397-6.396l-11.172-11.173l-0.003-0.002
	l-28.905,28.903l17.572,17.573c25.26,25.26,66.193,25.267,91.445,0.014C262.308,211.801,262.302,170.868,237.042,145.608z"/>
<rect x="76.322" y="73.032" transform="matrix(0.7071 0.7071 -0.7071 0.7071 96.7983 -40.0903)" fill="#E53138" width="40.942" height="47.538"/>
<path fill="#E53138" d="M19.023,110.475l17.573,17.573L65.51,99.133l-0.003-0.002L54.334,87.958l-6.397-6.396
	c-9.286-9.286-9.253-24.328,0.017-33.598c9.272-9.273,24.309-9.306,33.598-0.017l6.397,6.396l11.173,11.174l0.002,0.002
	l28.904-28.905l-17.571-17.573C85.197-6.22,44.265-6.225,19.012,19.027C-6.243,44.282-6.238,85.214,19.023,110.475z"/>
<rect x="138.803" y="72.949" transform="matrix(-0.7071 0.7071 -0.7071 -0.7071 340.2869 52.4851)" fill="#009CDA" width="40.942" height="47.538"/>
<path fill="#009CDA" d="M145.598,18.949l-17.572,17.573l28.915,28.915l0.002-0.002l11.174-11.173l6.396-6.397
	c9.286-9.286,24.327-9.254,33.598,0.017c9.273,9.272,9.308,24.309,0.018,33.598l-6.396,6.396l-11.174,11.174l-0.002,0.002
	l28.904,28.905l17.573-17.573c25.26-25.26,25.266-66.192,0.013-91.445C211.792-6.317,170.859-6.312,145.598,18.949z"/>
<rect x="76.238" y="135.513" transform="matrix(0.7071 -0.7071 0.7071 0.7071 -84.3049 115.0379)" fill="#009CDA" width="40.941" height="47.539"/>
<path fill="#009CDA" d="M110.383,237.052l17.572-17.574l-28.914-28.912l-0.002,0.002L87.866,201.74l-6.396,6.397
	c-9.286,9.285-24.328,9.254-33.598-0.017c-9.272-9.273-9.307-24.31-0.018-33.599l6.397-6.397l11.174-11.173l0.002-0.002
	l-28.905-28.905l-17.572,17.573c-25.26,25.26-25.266,66.192-0.013,91.446C44.19,262.317,85.124,262.312,110.383,237.052z"/>
</svg>
